<?xml version="1.0" encoding="UTF-8" standalone="no"?>
<!DOCTYPE svg PUBLIC "-//W3C//DTD SVG 1.1//EN" "http://www.w3.org/Graphics/SVG/1.1/DTD/svg11.dtd">
<svg width="100%" height="100%" viewBox="0 0 75 77" version="1.1" xmlns="http://www.w3.org/2000/svg" xmlns:xlink="http://www.w3.org/1999/xlink" xml:space="preserve" xmlns:serif="http://www.serif.com/" style="fill-rule:evenodd;clip-rule:evenodd;stroke-linejoin:round;stroke-miterlimit:1.41421;">
    <g transform="matrix(1.05424,0,0,1.05424,-20.3916,-45.2187)">
        <path d="M41.362,84.174L56.065,90.561L32.962,109.687L41.362,84.174Z" style="fill:rgb(216,92,0);"/>
    </g>
    <g transform="matrix(1.05424,0,0,1.05424,-20.3916,-45.2187)">
        <path d="M54.954,93.919L65.707,81.765L76.946,109.687L54.954,93.919Z" style="fill:rgb(216,92,0);"/>
    </g>
    <g transform="matrix(1.05424,0,0,1.05424,-20.3916,-45.2187)">
        <path d="M68.546,84.174L60.319,69.844L90.538,68.406L68.546,84.174Z" style="fill:rgb(216,92,0);"/>
    </g>
    <g transform="matrix(1.05424,0,0,1.05424,-20.3916,-45.2187)">
        <path d="M54.954,42.892L63.354,68.406L47.162,70.924L54.954,42.892Z" style="fill:rgb(216,92,0);"/>
    </g>
    <g transform="matrix(1.05424,0,0,1.05424,-20.3916,-45.2187)">
        <path d="M46.554,68.406L44.642,84.174L19.37,68.406L46.554,68.406Z" style="fill:rgb(216,92,0);"/>
    </g>
</svg>
